<svg width="176" height="25" viewBox="0 0 176 25" fill="none" xmlns="http://www.w3.org/2000/svg">
<g clip-path="url(#clip0_1072_2649)">
<path d="M4.29 11.33C5.83087 11.33 7.08 10.0809 7.08 8.54C7.08 6.99913 5.83087 5.75 4.29 5.75C2.74913 5.75 1.5 6.99913 1.5 8.54C1.5 10.0809 2.74913 11.33 4.29 11.33Z" fill="#FBBF24"/>
<path d="M12.665 11.3779C14.2059 11.3779 15.455 10.1287 15.455 8.58785C15.455 7.04698 14.2059 5.79785 12.665 5.79785C11.1241 5.79785 9.875 7.04698 9.875 8.58785C9.875 10.1287 11.1241 11.3779 12.665 11.3779Z" fill="#FBBF24"/>
<path d="M4.29 18.995C5.83087 18.995 7.08 17.7459 7.08 16.205C7.08 14.6642 5.83087 13.415 4.29 13.415C2.74913 13.415 1.5 14.6642 1.5 16.205C1.5 17.7459 2.74913 18.995 4.29 18.995Z" fill="#FBBF24"/>
<path d="M12.665 19.0429C14.2059 19.0429 15.455 17.7938 15.455 16.2529C15.455 14.712 14.2059 13.4629 12.665 13.4629C11.1241 13.4629 9.875 14.712 9.875 16.2529C9.875 17.7938 11.1241 19.0429 12.665 19.0429Z" fill="#FBBF24"/>
<path d="M21.0849 19.0429C22.6258 19.0429 23.8749 17.7938 23.8749 16.2529C23.8749 14.712 22.6258 13.4629 21.0849 13.4629C19.544 13.4629 18.2949 14.712 18.2949 16.2529C18.2949 17.7938 19.544 19.0429 21.0849 19.0429Z" fill="#FBBF24"/>
</g>
<g clip-path="url(#clip1_1072_2649)">
<path d="M33.9175 4.41797L42.805 9.99047" stroke="#374151" stroke-width="2.835" stroke-miterlimit="10" stroke-linecap="round"/>
<path d="M42.8052 9.99023L42.8127 20.4602" stroke="#374151" stroke-width="2.835" stroke-miterlimit="10" stroke-linecap="round"/>
<path d="M51.6877 4.41797L42.8052 9.99047" stroke="#374151" stroke-width="2.835" stroke-miterlimit="10" stroke-linecap="round"/>
</g>
<g clip-path="url(#clip2_1072_2649)">
<path d="M71.9326 3.34021L67.0276 21.2202C66.9949 21.3397 66.9902 21.4652 67.0139 21.5869C67.0377 21.7085 67.0891 21.823 67.1644 21.9215C67.2396 22.0199 67.3366 22.0997 67.4477 22.1546C67.5589 22.2094 67.6812 22.2379 67.8051 22.2377H77.6101C77.734 22.238 77.8562 22.2096 77.9673 22.1547C78.0784 22.0999 78.1752 22.02 78.2503 21.9214C78.3254 21.8229 78.3766 21.7083 78.4 21.5866C78.4234 21.465 78.4183 21.3396 78.3851 21.2202L73.4826 3.34021C73.4351 3.17121 73.3337 3.02234 73.1938 2.91632C73.0539 2.8103 72.8831 2.75293 72.7076 2.75293C72.532 2.75293 72.3613 2.8103 72.2214 2.91632C72.0815 3.02234 71.98 3.17121 71.9326 3.34021Z" fill="#EA580C"/>
</g>
<g clip-path="url(#clip3_1072_2649)">
<path d="M94.29 11.33C95.8309 11.33 97.08 10.0809 97.08 8.54C97.08 6.99913 95.8309 5.75 94.29 5.75C92.7491 5.75 91.5 6.99913 91.5 8.54C91.5 10.0809 92.7491 11.33 94.29 11.33Z" fill="#FBBF24"/>
<path d="M102.665 11.3779C104.206 11.3779 105.455 10.1287 105.455 8.58785C105.455 7.04698 104.206 5.79785 102.665 5.79785C101.124 5.79785 99.875 7.04698 99.875 8.58785C99.875 10.1287 101.124 11.3779 102.665 11.3779Z" fill="#FBBF24"/>
<path d="M94.29 18.995C95.8309 18.995 97.08 17.7459 97.08 16.205C97.08 14.6642 95.8309 13.415 94.29 13.415C92.7491 13.415 91.5 14.6642 91.5 16.205C91.5 17.7459 92.7491 18.995 94.29 18.995Z" fill="#FBBF24"/>
<path d="M102.665 19.0429C104.206 19.0429 105.455 17.7938 105.455 16.2529C105.455 14.712 104.206 13.4629 102.665 13.4629C101.124 13.4629 99.875 14.712 99.875 16.2529C99.875 17.7938 101.124 19.0429 102.665 19.0429Z" fill="#FBBF24"/>
<path d="M111.085 19.0429C112.626 19.0429 113.875 17.7938 113.875 16.2529C113.875 14.712 112.626 13.4629 111.085 13.4629C109.544 13.4629 108.295 14.712 108.295 16.2529C108.295 17.7938 109.544 19.0429 111.085 19.0429Z" fill="#FBBF24"/>
</g>
<g clip-path="url(#clip4_1072_2649)">
<path d="M123.917 4.41797L132.805 9.99047" stroke="#374151" stroke-width="2.835" stroke-miterlimit="10" stroke-linecap="round"/>
<path d="M132.805 9.99023L132.813 20.4602" stroke="#374151" stroke-width="2.835" stroke-miterlimit="10" stroke-linecap="round"/>
<path d="M141.688 4.41797L132.805 9.99047" stroke="#374151" stroke-width="2.835" stroke-miterlimit="10" stroke-linecap="round"/>
</g>
<g clip-path="url(#clip5_1072_2649)">
<path d="M161.933 3.34021L157.028 21.2202C156.995 21.3397 156.99 21.4652 157.014 21.5869C157.038 21.7085 157.089 21.823 157.164 21.9215C157.24 22.0199 157.337 22.0997 157.448 22.1546C157.559 22.2094 157.681 22.2379 157.805 22.2377H167.61C167.734 22.238 167.856 22.2096 167.967 22.1547C168.078 22.0999 168.175 22.02 168.25 21.9214C168.325 21.8229 168.377 21.7083 168.4 21.5866C168.423 21.465 168.418 21.3396 168.385 21.2202L163.483 3.34021C163.435 3.17121 163.334 3.02234 163.194 2.91632C163.054 2.8103 162.883 2.75293 162.708 2.75293C162.532 2.75293 162.361 2.8103 162.221 2.91632C162.081 3.02234 161.98 3.17121 161.933 3.34021Z" fill="#EA580C"/>
</g>
<defs>
<clipPath id="clip0_1072_2649">
<rect width="22.375" height="13.2925" fill="white" transform="translate(1.5 5.75)"/>
</clipPath>
<clipPath id="clip1_1072_2649">
<rect width="20.605" height="18.8775" fill="white" transform="translate(32.5 3)"/>
</clipPath>
<clipPath id="clip2_1072_2649">
<rect width="11.415" height="19.4875" fill="white" transform="translate(67 2.75)"/>
</clipPath>
<clipPath id="clip3_1072_2649">
<rect width="22.375" height="13.2925" fill="white" transform="translate(91.5 5.75)"/>
</clipPath>
<clipPath id="clip4_1072_2649">
<rect width="20.605" height="18.8775" fill="white" transform="translate(122.5 3)"/>
</clipPath>
<clipPath id="clip5_1072_2649">
<rect width="11.415" height="19.4875" fill="white" transform="translate(157 2.75)"/>
</clipPath>
</defs>
</svg>
